<?xml version="1.0" encoding="UTF-8"?>
<svg id="_Слой_1" data-name="Слой 1" xmlns="http://www.w3.org/2000/svg" viewBox="0 0 290 290">
  <defs>
    <style>
      .cls-1 {
        fill: #1d1d1b;
      }

      .cls-2 {
        fill: #fff;
      }
    </style>
  </defs>
  <rect class="cls-1" x="0" y="0" width="290" height="290" rx="145" ry="145"/>
  <path class="cls-2" d="M98.81,22.08h91.89c23.81,0,42.53,6.13,56.17,18.38,13.64,12.26,20.46,28.09,20.46,47.5,0,12.26-3.41,23.23-10.23,32.94-6.82,9.71-15.43,16.3-25.83,19.76,12.02,2.77,22.31,9.31,30.86,19.59,8.55,10.29,12.83,22.94,12.83,37.97,0,20.34-7.11,37.05-21.32,50.11-14.22,13.06-32.77,19.59-55.65,19.59h-99.17V22.08ZM152.21,120.55h29.82c9.71,0,17.39-2.37,23.06-7.11,5.66-4.74,8.5-11.27,8.5-19.59s-2.77-14.5-8.32-19.24c-5.55-4.74-13.52-7.11-23.92-7.11h-29.13v53.05ZM152.21,223.19h34.33c10.63,0,18.95-2.6,24.96-7.8,6.01-5.2,9.02-12.19,9.02-20.98s-3.01-15.48-9.02-20.8c-6.01-5.31-14.33-7.98-24.96-7.98h-34.33v57.56Z"/>
</svg>